<mxfile host="app.diagrams.net" modified="2023-07-03T22:03:12.406Z" agent="Mozilla/5.0 (X11; Linux x86_64; rv:109.0) Gecko/20100101 Firefox/114.0" etag="uz_DtbViSzqPloj_DjxC" version="21.5.2" type="device" pages="4">
  <diagram name="Components" id="fg2-oNMhH4X4vXxZEWPD">
    <mxGraphModel dx="1028" dy="558" grid="1" gridSize="10" guides="1" tooltips="1" connect="1" arrows="1" fold="1" page="1" pageScale="1" pageWidth="850" pageHeight="1100" math="0" shadow="0">
      <root>
        <mxCell id="0" />
        <mxCell id="1" parent="0" />
        <mxCell id="lIsuV4rlWAabvZU2MC4q-8" style="edgeStyle=orthogonalEdgeStyle;rounded=0;orthogonalLoop=1;jettySize=auto;html=1;entryX=0;entryY=0.5;entryDx=0;entryDy=0;entryPerimeter=0;exitX=1;exitY=0.75;exitDx=0;exitDy=0;endArrow=none;endFill=0;" edge="1" parent="1" source="lIsuV4rlWAabvZU2MC4q-1" target="lIsuV4rlWAabvZU2MC4q-5">
          <mxGeometry relative="1" as="geometry" />
        </mxCell>
        <mxCell id="lIsuV4rlWAabvZU2MC4q-1" value="&lt;div&gt;«Component»&lt;/div&gt;&lt;div&gt;&lt;b&gt;Backend Server (API)&lt;/b&gt;&lt;/div&gt;" style="html=1;dropTarget=0;whiteSpace=wrap;" vertex="1" parent="1">
          <mxGeometry x="40" y="40" width="180" height="90" as="geometry" />
        </mxCell>
        <mxCell id="lIsuV4rlWAabvZU2MC4q-2" value="" style="shape=module;jettyWidth=8;jettyHeight=4;" vertex="1" parent="lIsuV4rlWAabvZU2MC4q-1">
          <mxGeometry x="1" width="20" height="20" relative="1" as="geometry">
            <mxPoint x="-27" y="7" as="offset" />
          </mxGeometry>
        </mxCell>
        <mxCell id="lIsuV4rlWAabvZU2MC4q-16" style="edgeStyle=orthogonalEdgeStyle;rounded=0;orthogonalLoop=1;jettySize=auto;html=1;exitX=1;exitY=0.5;exitDx=0;exitDy=0;exitPerimeter=0;entryX=0;entryY=0.25;entryDx=0;entryDy=0;" edge="1" parent="1" source="lIsuV4rlWAabvZU2MC4q-5" target="lIsuV4rlWAabvZU2MC4q-11">
          <mxGeometry relative="1" as="geometry" />
        </mxCell>
        <mxCell id="lIsuV4rlWAabvZU2MC4q-5" value="" style="shape=providedRequiredInterface;html=1;verticalLabelPosition=bottom;sketch=0;rotation=90;" vertex="1" parent="1">
          <mxGeometry x="390" y="200" width="20" height="20" as="geometry" />
        </mxCell>
        <mxCell id="lIsuV4rlWAabvZU2MC4q-10" style="edgeStyle=orthogonalEdgeStyle;rounded=0;orthogonalLoop=1;jettySize=auto;html=1;entryX=0.5;entryY=1;entryDx=0;entryDy=0;endArrow=none;endFill=0;" edge="1" parent="1" source="lIsuV4rlWAabvZU2MC4q-6" target="lIsuV4rlWAabvZU2MC4q-1">
          <mxGeometry relative="1" as="geometry" />
        </mxCell>
        <mxCell id="lIsuV4rlWAabvZU2MC4q-6" value="" style="shape=providedRequiredInterface;html=1;verticalLabelPosition=bottom;sketch=0;rotation=-90;" vertex="1" parent="1">
          <mxGeometry x="220" y="275" width="20" height="20" as="geometry" />
        </mxCell>
        <mxCell id="lIsuV4rlWAabvZU2MC4q-7" value="&lt;div&gt;&amp;lt;&amp;lt;File&amp;gt;&amp;gt;&lt;/div&gt;&lt;div&gt;&lt;b&gt;Game status&lt;/b&gt;&lt;br&gt;&lt;/div&gt;" style="shape=note;whiteSpace=wrap;html=1;backgroundOutline=1;darkOpacity=0.05;" vertex="1" parent="1">
          <mxGeometry x="10" y="360" width="80" height="110" as="geometry" />
        </mxCell>
        <mxCell id="lIsuV4rlWAabvZU2MC4q-15" style="edgeStyle=orthogonalEdgeStyle;rounded=0;orthogonalLoop=1;jettySize=auto;html=1;exitX=0;exitY=0.75;exitDx=0;exitDy=0;entryX=0;entryY=0.5;entryDx=0;entryDy=0;entryPerimeter=0;endArrow=none;endFill=0;" edge="1" parent="1" source="lIsuV4rlWAabvZU2MC4q-11" target="lIsuV4rlWAabvZU2MC4q-6">
          <mxGeometry relative="1" as="geometry" />
        </mxCell>
        <mxCell id="lIsuV4rlWAabvZU2MC4q-11" value="&lt;div&gt;«Component»&lt;/div&gt;&lt;div&gt;&lt;b&gt;Terminal&lt;/b&gt;&lt;/div&gt;" style="html=1;dropTarget=0;whiteSpace=wrap;" vertex="1" parent="1">
          <mxGeometry x="550" y="290" width="180" height="90" as="geometry" />
        </mxCell>
        <mxCell id="lIsuV4rlWAabvZU2MC4q-12" value="" style="shape=module;jettyWidth=8;jettyHeight=4;" vertex="1" parent="lIsuV4rlWAabvZU2MC4q-11">
          <mxGeometry x="1" width="20" height="20" relative="1" as="geometry">
            <mxPoint x="-27" y="7" as="offset" />
          </mxGeometry>
        </mxCell>
        <mxCell id="lIsuV4rlWAabvZU2MC4q-17" value="User" style="shape=umlActor;verticalLabelPosition=bottom;verticalAlign=top;html=1;outlineConnect=0;" vertex="1" parent="1">
          <mxGeometry x="690" y="430" width="30" height="60" as="geometry" />
        </mxCell>
        <mxCell id="lIsuV4rlWAabvZU2MC4q-20" value="Shell" style="whiteSpace=wrap;html=1;aspect=fixed;" vertex="1" parent="1">
          <mxGeometry x="500" y="295" width="80" height="80" as="geometry" />
        </mxCell>
        <mxCell id="lIsuV4rlWAabvZU2MC4q-21" value="" style="endArrow=none;dashed=1;html=1;dashPattern=1 3;strokeWidth=2;rounded=0;exitX=0.25;exitY=0;exitDx=0;exitDy=0;" edge="1" parent="1" source="lIsuV4rlWAabvZU2MC4q-20">
          <mxGeometry width="50" height="50" relative="1" as="geometry">
            <mxPoint x="520" y="280" as="sourcePoint" />
            <mxPoint x="570" y="230" as="targetPoint" />
          </mxGeometry>
        </mxCell>
        <mxCell id="lIsuV4rlWAabvZU2MC4q-22" value="" style="endArrow=none;dashed=1;html=1;dashPattern=1 3;strokeWidth=2;rounded=0;entryX=0.5;entryY=0;entryDx=0;entryDy=0;" edge="1" parent="1" target="lIsuV4rlWAabvZU2MC4q-11">
          <mxGeometry width="50" height="50" relative="1" as="geometry">
            <mxPoint x="570" y="230" as="sourcePoint" />
            <mxPoint x="640" y="200" as="targetPoint" />
          </mxGeometry>
        </mxCell>
        <mxCell id="lIsuV4rlWAabvZU2MC4q-23" value="Shell instance" style="text;html=1;strokeColor=none;fillColor=none;align=center;verticalAlign=middle;whiteSpace=wrap;rounded=0;" vertex="1" parent="1">
          <mxGeometry x="540" y="200" width="60" height="30" as="geometry" />
        </mxCell>
        <mxCell id="lIsuV4rlWAabvZU2MC4q-24" value="" style="ellipse;whiteSpace=wrap;html=1;aspect=fixed;" vertex="1" parent="1">
          <mxGeometry x="520" y="440" width="40" height="40" as="geometry" />
        </mxCell>
        <mxCell id="lIsuV4rlWAabvZU2MC4q-25" value="" style="endArrow=none;html=1;rounded=0;exitX=0.5;exitY=0;exitDx=0;exitDy=0;entryX=0.5;entryY=1;entryDx=0;entryDy=0;" edge="1" parent="1" source="lIsuV4rlWAabvZU2MC4q-24" target="lIsuV4rlWAabvZU2MC4q-20">
          <mxGeometry width="50" height="50" relative="1" as="geometry">
            <mxPoint x="570" y="460" as="sourcePoint" />
            <mxPoint x="620" y="410" as="targetPoint" />
          </mxGeometry>
        </mxCell>
        <mxCell id="lIsuV4rlWAabvZU2MC4q-26" value="Use" style="endArrow=open;endSize=12;dashed=1;html=1;rounded=0;entryX=1;entryY=0.5;entryDx=0;entryDy=0;" edge="1" parent="1" source="lIsuV4rlWAabvZU2MC4q-17" target="lIsuV4rlWAabvZU2MC4q-24">
          <mxGeometry width="160" relative="1" as="geometry">
            <mxPoint x="590" y="440" as="sourcePoint" />
            <mxPoint x="750" y="440" as="targetPoint" />
          </mxGeometry>
        </mxCell>
        <mxCell id="lIsuV4rlWAabvZU2MC4q-27" value="Shell instructions" style="text;html=1;strokeColor=none;fillColor=none;align=center;verticalAlign=middle;whiteSpace=wrap;rounded=0;" vertex="1" parent="1">
          <mxGeometry x="510" y="490" width="60" height="30" as="geometry" />
        </mxCell>
        <mxCell id="lIsuV4rlWAabvZU2MC4q-29" style="edgeStyle=orthogonalEdgeStyle;rounded=0;orthogonalLoop=1;jettySize=auto;html=1;entryX=0.5;entryY=0;entryDx=0;entryDy=0;entryPerimeter=0;endArrow=none;endFill=0;" edge="1" parent="1" source="lIsuV4rlWAabvZU2MC4q-28" target="lIsuV4rlWAabvZU2MC4q-7">
          <mxGeometry relative="1" as="geometry" />
        </mxCell>
        <mxCell id="lIsuV4rlWAabvZU2MC4q-30" style="edgeStyle=orthogonalEdgeStyle;rounded=0;orthogonalLoop=1;jettySize=auto;html=1;entryX=0.25;entryY=1;entryDx=0;entryDy=0;endArrow=none;endFill=0;exitX=1;exitY=0.5;exitDx=0;exitDy=0;exitPerimeter=0;" edge="1" parent="1" source="lIsuV4rlWAabvZU2MC4q-28" target="lIsuV4rlWAabvZU2MC4q-1">
          <mxGeometry relative="1" as="geometry" />
        </mxCell>
        <mxCell id="lIsuV4rlWAabvZU2MC4q-28" value="" style="shape=providedRequiredInterface;html=1;verticalLabelPosition=bottom;sketch=0;rotation=-90;" vertex="1" parent="1">
          <mxGeometry x="40" y="275" width="20" height="20" as="geometry" />
        </mxCell>
        <mxCell id="lIsuV4rlWAabvZU2MC4q-31" value="Receive Instructions" style="text;html=1;strokeColor=none;fillColor=none;align=center;verticalAlign=middle;whiteSpace=wrap;rounded=0;" vertex="1" parent="1">
          <mxGeometry x="425" y="195" width="60" height="30" as="geometry" />
        </mxCell>
        <mxCell id="lIsuV4rlWAabvZU2MC4q-32" value="Send status" style="text;html=1;strokeColor=none;fillColor=none;align=center;verticalAlign=middle;whiteSpace=wrap;rounded=0;" vertex="1" parent="1">
          <mxGeometry x="250" y="270" width="60" height="30" as="geometry" />
        </mxCell>
        <mxCell id="lIsuV4rlWAabvZU2MC4q-33" value="Updates status" style="text;html=1;strokeColor=none;fillColor=none;align=center;verticalAlign=middle;whiteSpace=wrap;rounded=0;" vertex="1" parent="1">
          <mxGeometry x="60" y="270" width="60" height="30" as="geometry" />
        </mxCell>
        <mxCell id="lIsuV4rlWAabvZU2MC4q-34" value="zorroscape" style="shape=umlFrame;whiteSpace=wrap;html=1;pointerEvents=0;width=80;height=40;" vertex="1" parent="1">
          <mxGeometry x="50" y="830" width="300" height="200" as="geometry" />
        </mxCell>
        <mxCell id="lIsuV4rlWAabvZU2MC4q-35" value="" style="endArrow=none;dashed=1;html=1;dashPattern=1 3;strokeWidth=2;rounded=0;" edge="1" parent="1">
          <mxGeometry width="50" height="50" relative="1" as="geometry">
            <mxPoint x="10" y="560" as="sourcePoint" />
            <mxPoint x="840" y="560" as="targetPoint" />
          </mxGeometry>
        </mxCell>
        <mxCell id="lIsuV4rlWAabvZU2MC4q-40" value="&lt;div&gt;«Interface»&lt;/div&gt;&lt;div&gt;&lt;b&gt;Web browser&lt;/b&gt;&lt;br&gt;&lt;/div&gt;" style="html=1;dropTarget=0;whiteSpace=wrap;" vertex="1" parent="1">
          <mxGeometry x="640" y="670" width="180" height="90" as="geometry" />
        </mxCell>
        <mxCell id="lIsuV4rlWAabvZU2MC4q-41" value="" style="shape=module;jettyWidth=8;jettyHeight=4;" vertex="1" parent="lIsuV4rlWAabvZU2MC4q-40">
          <mxGeometry x="1" width="20" height="20" relative="1" as="geometry">
            <mxPoint x="-27" y="7" as="offset" />
          </mxGeometry>
        </mxCell>
        <mxCell id="lIsuV4rlWAabvZU2MC4q-42" value="&lt;div&gt;«Component»&lt;/div&gt;&lt;div&gt;&lt;b&gt;Frontend Server (UI)&lt;/b&gt;&lt;/div&gt;" style="html=1;dropTarget=0;whiteSpace=wrap;" vertex="1" parent="1">
          <mxGeometry x="120" y="600" width="180" height="90" as="geometry" />
        </mxCell>
        <mxCell id="lIsuV4rlWAabvZU2MC4q-43" value="" style="shape=module;jettyWidth=8;jettyHeight=4;" vertex="1" parent="lIsuV4rlWAabvZU2MC4q-42">
          <mxGeometry x="1" width="20" height="20" relative="1" as="geometry">
            <mxPoint x="-27" y="7" as="offset" />
          </mxGeometry>
        </mxCell>
        <mxCell id="lIsuV4rlWAabvZU2MC4q-47" style="edgeStyle=orthogonalEdgeStyle;rounded=0;orthogonalLoop=1;jettySize=auto;html=1;entryX=1;entryY=0.5;entryDx=0;entryDy=0;endArrow=none;endFill=0;" edge="1" parent="1" source="lIsuV4rlWAabvZU2MC4q-46" target="lIsuV4rlWAabvZU2MC4q-42">
          <mxGeometry relative="1" as="geometry" />
        </mxCell>
        <mxCell id="lIsuV4rlWAabvZU2MC4q-46" value="" style="shape=requiredInterface;html=1;verticalLabelPosition=bottom;sketch=0;rotation=-180;" vertex="1" parent="1">
          <mxGeometry x="400" y="635" width="10" height="20" as="geometry" />
        </mxCell>
        <mxCell id="lIsuV4rlWAabvZU2MC4q-49" value="" style="shape=umlBoundary;whiteSpace=wrap;html=1;rotation=-180;" vertex="1" parent="1">
          <mxGeometry x="600" y="700" width="40" height="30" as="geometry" />
        </mxCell>
        <mxCell id="lIsuV4rlWAabvZU2MC4q-51" value="&lt;font style=&quot;font-size: 10px;&quot;&gt;Provide interface&lt;/font&gt;" style="text;html=1;strokeColor=none;fillColor=none;align=center;verticalAlign=middle;whiteSpace=wrap;rounded=0;" vertex="1" parent="1">
          <mxGeometry x="590" y="730" width="60" height="40" as="geometry" />
        </mxCell>
        <mxCell id="lIsuV4rlWAabvZU2MC4q-52" value="Use web as GUI" style="text;html=1;strokeColor=none;fillColor=none;align=center;verticalAlign=middle;whiteSpace=wrap;rounded=0;" vertex="1" parent="1">
          <mxGeometry x="375" y="605" width="60" height="30" as="geometry" />
        </mxCell>
        <mxCell id="lIsuV4rlWAabvZU2MC4q-55" value="" style="edgeStyle=orthogonalEdgeStyle;rounded=0;orthogonalLoop=1;jettySize=auto;html=1;endArrow=none;endFill=0;" edge="1" parent="1" source="lIsuV4rlWAabvZU2MC4q-54" target="lIsuV4rlWAabvZU2MC4q-34">
          <mxGeometry relative="1" as="geometry" />
        </mxCell>
        <mxCell id="lIsuV4rlWAabvZU2MC4q-57" value="" style="edgeStyle=orthogonalEdgeStyle;rounded=0;orthogonalLoop=1;jettySize=auto;html=1;endArrow=none;endFill=0;" edge="1" parent="1" source="lIsuV4rlWAabvZU2MC4q-54" target="lIsuV4rlWAabvZU2MC4q-42">
          <mxGeometry relative="1" as="geometry" />
        </mxCell>
        <mxCell id="lIsuV4rlWAabvZU2MC4q-54" value="" style="shape=providedRequiredInterface;html=1;verticalLabelPosition=bottom;sketch=0;rotation=-90;" vertex="1" parent="1">
          <mxGeometry x="190" y="750" width="20" height="20" as="geometry" />
        </mxCell>
        <mxCell id="lIsuV4rlWAabvZU2MC4q-56" value="Updates player position" style="text;html=1;strokeColor=none;fillColor=none;align=center;verticalAlign=middle;whiteSpace=wrap;rounded=0;" vertex="1" parent="1">
          <mxGeometry x="80" y="745" width="100" height="30" as="geometry" />
        </mxCell>
        <mxCell id="lIsuV4rlWAabvZU2MC4q-59" value="&lt;font style=&quot;font-size: 32px;&quot;&gt;Backend&lt;/font&gt;" style="text;html=1;strokeColor=none;fillColor=none;align=center;verticalAlign=middle;whiteSpace=wrap;rounded=0;" vertex="1" parent="1">
          <mxGeometry x="650" y="10" width="190" height="70" as="geometry" />
        </mxCell>
        <mxCell id="lIsuV4rlWAabvZU2MC4q-60" value="&lt;font style=&quot;font-size: 32px;&quot;&gt;Frontend&lt;/font&gt;" style="text;html=1;strokeColor=none;fillColor=none;align=center;verticalAlign=middle;whiteSpace=wrap;rounded=0;" vertex="1" parent="1">
          <mxGeometry x="630" y="960" width="190" height="70" as="geometry" />
        </mxCell>
        <mxCell id="lIsuV4rlWAabvZU2MC4q-61" value="Use" style="endArrow=open;endSize=12;dashed=1;html=1;rounded=0;entryX=0.5;entryY=0;entryDx=0;entryDy=0;exitX=0;exitY=0;exitDx=80;exitDy=70;exitPerimeter=0;" edge="1" parent="1" source="lIsuV4rlWAabvZU2MC4q-7" target="lIsuV4rlWAabvZU2MC4q-42">
          <mxGeometry width="160" relative="1" as="geometry">
            <mxPoint x="130" y="430" as="sourcePoint" />
            <mxPoint x="290" y="430" as="targetPoint" />
          </mxGeometry>
        </mxCell>
        <mxCell id="lIsuV4rlWAabvZU2MC4q-62" value="Extends" style="endArrow=block;endSize=16;endFill=0;html=1;rounded=0;exitX=0;exitY=0.5;exitDx=0;exitDy=0;exitPerimeter=0;entryX=1.025;entryY=0.4;entryDx=0;entryDy=0;entryPerimeter=0;" edge="1" parent="1" source="lIsuV4rlWAabvZU2MC4q-46" target="lIsuV4rlWAabvZU2MC4q-49">
          <mxGeometry width="160" relative="1" as="geometry">
            <mxPoint x="430" y="650" as="sourcePoint" />
            <mxPoint x="590" y="650" as="targetPoint" />
          </mxGeometry>
        </mxCell>
      </root>
    </mxGraphModel>
  </diagram>
  <diagram id="vCLA_ddJvcQWh8pepeFn" name="Packages">
    <mxGraphModel dx="874" dy="474" grid="1" gridSize="10" guides="1" tooltips="1" connect="1" arrows="1" fold="1" page="1" pageScale="1" pageWidth="850" pageHeight="1100" math="0" shadow="0">
      <root>
        <mxCell id="0" />
        <mxCell id="1" parent="0" />
        <mxCell id="huxQU5YlGegdI1hVqfrL-1" value="" style="shape=folder;fontStyle=1;spacingTop=10;tabWidth=130;tabHeight=30;tabPosition=left;html=1;whiteSpace=wrap;" vertex="1" parent="1">
          <mxGeometry x="40" y="40" width="260" height="190" as="geometry" />
        </mxCell>
        <mxCell id="huxQU5YlGegdI1hVqfrL-2" value="zorroscape_API" style="text;align=center;fontStyle=1;verticalAlign=middle;spacingLeft=3;spacingRight=3;strokeColor=none;rotatable=0;points=[[0,0.5],[1,0.5]];portConstraint=eastwest;html=1;" vertex="1" parent="1">
          <mxGeometry x="40" y="40" width="130" height="26" as="geometry" />
        </mxCell>
        <mxCell id="_4yj99TyufgzmkkabO5A-1" value="&lt;div&gt;«Component»&lt;/div&gt;&lt;div&gt;&lt;b&gt;Backend Server (API)&lt;/b&gt;&lt;/div&gt;" style="html=1;dropTarget=0;whiteSpace=wrap;" vertex="1" parent="1">
          <mxGeometry x="50" y="90" width="140" height="60" as="geometry" />
        </mxCell>
        <mxCell id="_4yj99TyufgzmkkabO5A-2" value="" style="shape=module;jettyWidth=8;jettyHeight=4;" vertex="1" parent="_4yj99TyufgzmkkabO5A-1">
          <mxGeometry x="1" width="20" height="20" relative="1" as="geometry">
            <mxPoint x="-27" y="7" as="offset" />
          </mxGeometry>
        </mxCell>
        <mxCell id="vbIPrfD5rZyt9Vxp0RWM-1" value="&lt;div&gt;&amp;lt;&amp;lt;File&amp;gt;&amp;gt;&lt;/div&gt;&lt;div&gt;&lt;b&gt;Game status&lt;/b&gt;&lt;br&gt;&lt;/div&gt;" style="shape=note;whiteSpace=wrap;html=1;backgroundOutline=1;darkOpacity=0.05;" vertex="1" parent="1">
          <mxGeometry x="210" y="110" width="80" height="90" as="geometry" />
        </mxCell>
        <mxCell id="K6dREEbRCLqWQLxPJ3EU-3" value="" style="shape=folder;fontStyle=1;spacingTop=10;tabWidth=130;tabHeight=30;tabPosition=left;html=1;whiteSpace=wrap;" vertex="1" parent="1">
          <mxGeometry x="480" y="40" width="260" height="190" as="geometry" />
        </mxCell>
        <mxCell id="K6dREEbRCLqWQLxPJ3EU-4" value="zorroscape_UI" style="text;align=center;fontStyle=1;verticalAlign=middle;spacingLeft=3;spacingRight=3;strokeColor=none;rotatable=0;points=[[0,0.5],[1,0.5]];portConstraint=eastwest;html=1;" vertex="1" parent="1">
          <mxGeometry x="480" y="40" width="130" height="26" as="geometry" />
        </mxCell>
        <mxCell id="K6dREEbRCLqWQLxPJ3EU-1" value="&lt;div&gt;«Component»&lt;/div&gt;&lt;div&gt;&lt;b&gt;Frontend Server (UI)&lt;/b&gt;&lt;/div&gt;" style="html=1;dropTarget=0;whiteSpace=wrap;" vertex="1" parent="1">
          <mxGeometry x="540" y="110" width="140" height="80" as="geometry" />
        </mxCell>
        <mxCell id="K6dREEbRCLqWQLxPJ3EU-2" value="" style="shape=module;jettyWidth=8;jettyHeight=4;" vertex="1" parent="K6dREEbRCLqWQLxPJ3EU-1">
          <mxGeometry x="1" width="20" height="20" relative="1" as="geometry">
            <mxPoint x="-27" y="7" as="offset" />
          </mxGeometry>
        </mxCell>
        <mxCell id="K6dREEbRCLqWQLxPJ3EU-5" value="Use" style="endArrow=open;endSize=12;dashed=1;html=1;rounded=0;exitX=0;exitY=0;exitDx=0;exitDy=110;entryX=0;entryY=0;entryDx=260;entryDy=110;entryPerimeter=0;exitPerimeter=0;" edge="1" parent="1" source="K6dREEbRCLqWQLxPJ3EU-3" target="huxQU5YlGegdI1hVqfrL-1">
          <mxGeometry width="160" relative="1" as="geometry">
            <mxPoint x="350" y="150" as="sourcePoint" />
            <mxPoint x="510" y="150" as="targetPoint" />
          </mxGeometry>
        </mxCell>
      </root>
    </mxGraphModel>
  </diagram>
  <diagram id="9D-H1wU7ZC_B48JWYWZt" name="States">
    <mxGraphModel dx="1942" dy="1053" grid="1" gridSize="10" guides="1" tooltips="1" connect="1" arrows="1" fold="1" page="1" pageScale="1" pageWidth="850" pageHeight="1100" math="0" shadow="0">
      <root>
        <mxCell id="0" />
        <mxCell id="1" parent="0" />
        <mxCell id="3oWR45-d2a_-YinDWhUd-8" style="edgeStyle=orthogonalEdgeStyle;rounded=0;orthogonalLoop=1;jettySize=auto;html=1;entryX=0;entryY=0.5;entryDx=0;entryDy=0;curved=1;" edge="1" parent="1" source="3oWR45-d2a_-YinDWhUd-3" target="3oWR45-d2a_-YinDWhUd-4">
          <mxGeometry relative="1" as="geometry" />
        </mxCell>
        <mxCell id="3oWR45-d2a_-YinDWhUd-9" style="edgeStyle=orthogonalEdgeStyle;rounded=0;orthogonalLoop=1;jettySize=auto;html=1;entryX=0;entryY=0.5;entryDx=0;entryDy=0;curved=1;" edge="1" parent="1" source="3oWR45-d2a_-YinDWhUd-3" target="3oWR45-d2a_-YinDWhUd-5">
          <mxGeometry relative="1" as="geometry" />
        </mxCell>
        <mxCell id="3oWR45-d2a_-YinDWhUd-10" style="edgeStyle=orthogonalEdgeStyle;rounded=0;orthogonalLoop=1;jettySize=auto;html=1;curved=1;" edge="1" parent="1" source="3oWR45-d2a_-YinDWhUd-3" target="3oWR45-d2a_-YinDWhUd-6">
          <mxGeometry relative="1" as="geometry" />
        </mxCell>
        <mxCell id="3oWR45-d2a_-YinDWhUd-11" style="edgeStyle=orthogonalEdgeStyle;rounded=0;orthogonalLoop=1;jettySize=auto;html=1;entryX=0;entryY=0.5;entryDx=0;entryDy=0;curved=1;" edge="1" parent="1" source="3oWR45-d2a_-YinDWhUd-3" target="3oWR45-d2a_-YinDWhUd-7">
          <mxGeometry relative="1" as="geometry" />
        </mxCell>
        <mxCell id="3oWR45-d2a_-YinDWhUd-26" style="edgeStyle=orthogonalEdgeStyle;rounded=0;orthogonalLoop=1;jettySize=auto;html=1;entryX=0;entryY=0.5;entryDx=0;entryDy=0;curved=1;exitX=0.5;exitY=1;exitDx=0;exitDy=0;" edge="1" parent="1" source="3oWR45-d2a_-YinDWhUd-3" target="3oWR45-d2a_-YinDWhUd-24">
          <mxGeometry relative="1" as="geometry" />
        </mxCell>
        <mxCell id="3oWR45-d2a_-YinDWhUd-27" style="edgeStyle=orthogonalEdgeStyle;rounded=0;orthogonalLoop=1;jettySize=auto;html=1;entryX=0;entryY=0.5;entryDx=0;entryDy=0;curved=1;exitX=0.5;exitY=1;exitDx=0;exitDy=0;" edge="1" parent="1" source="3oWR45-d2a_-YinDWhUd-3" target="3oWR45-d2a_-YinDWhUd-25">
          <mxGeometry relative="1" as="geometry" />
        </mxCell>
        <mxCell id="3oWR45-d2a_-YinDWhUd-3" value="" style="ellipse;whiteSpace=wrap;html=1;aspect=fixed;fillColor=#008a00;strokeColor=#005700;fontColor=#ffffff;" vertex="1" parent="1">
          <mxGeometry x="40" y="170" width="40" height="40" as="geometry" />
        </mxCell>
        <mxCell id="3oWR45-d2a_-YinDWhUd-15" style="edgeStyle=orthogonalEdgeStyle;rounded=0;orthogonalLoop=1;jettySize=auto;html=1;curved=1;" edge="1" parent="1" source="3oWR45-d2a_-YinDWhUd-4" target="3oWR45-d2a_-YinDWhUd-13">
          <mxGeometry relative="1" as="geometry">
            <Array as="points">
              <mxPoint x="465" y="60" />
            </Array>
          </mxGeometry>
        </mxCell>
        <mxCell id="3oWR45-d2a_-YinDWhUd-4" value="Up" style="rounded=1;whiteSpace=wrap;html=1;" vertex="1" parent="1">
          <mxGeometry x="200" y="40" width="120" height="40" as="geometry" />
        </mxCell>
        <mxCell id="3oWR45-d2a_-YinDWhUd-16" style="edgeStyle=orthogonalEdgeStyle;rounded=0;orthogonalLoop=1;jettySize=auto;html=1;curved=1;" edge="1" parent="1" source="3oWR45-d2a_-YinDWhUd-5" target="3oWR45-d2a_-YinDWhUd-13">
          <mxGeometry relative="1" as="geometry" />
        </mxCell>
        <mxCell id="3oWR45-d2a_-YinDWhUd-5" value="Right" style="rounded=1;whiteSpace=wrap;html=1;" vertex="1" parent="1">
          <mxGeometry x="200" y="120" width="120" height="40" as="geometry" />
        </mxCell>
        <mxCell id="3oWR45-d2a_-YinDWhUd-17" style="edgeStyle=orthogonalEdgeStyle;rounded=0;orthogonalLoop=1;jettySize=auto;html=1;curved=1;" edge="1" parent="1" source="3oWR45-d2a_-YinDWhUd-6" target="3oWR45-d2a_-YinDWhUd-13">
          <mxGeometry relative="1" as="geometry" />
        </mxCell>
        <mxCell id="3oWR45-d2a_-YinDWhUd-6" value="Left" style="rounded=1;whiteSpace=wrap;html=1;" vertex="1" parent="1">
          <mxGeometry x="200" y="200" width="120" height="40" as="geometry" />
        </mxCell>
        <mxCell id="3oWR45-d2a_-YinDWhUd-18" style="edgeStyle=orthogonalEdgeStyle;rounded=0;orthogonalLoop=1;jettySize=auto;html=1;curved=1;" edge="1" parent="1" source="3oWR45-d2a_-YinDWhUd-7" target="3oWR45-d2a_-YinDWhUd-13">
          <mxGeometry relative="1" as="geometry">
            <Array as="points">
              <mxPoint x="465" y="300" />
            </Array>
          </mxGeometry>
        </mxCell>
        <mxCell id="3oWR45-d2a_-YinDWhUd-7" value="Down" style="rounded=1;whiteSpace=wrap;html=1;" vertex="1" parent="1">
          <mxGeometry x="200" y="280" width="120" height="40" as="geometry" />
        </mxCell>
        <mxCell id="3oWR45-d2a_-YinDWhUd-62" value="" style="edgeStyle=orthogonalEdgeStyle;rounded=0;orthogonalLoop=1;jettySize=auto;html=1;" edge="1" parent="1" source="3oWR45-d2a_-YinDWhUd-12" target="3oWR45-d2a_-YinDWhUd-61">
          <mxGeometry relative="1" as="geometry" />
        </mxCell>
        <mxCell id="3oWR45-d2a_-YinDWhUd-12" value="Idle" style="rounded=1;whiteSpace=wrap;html=1;" vertex="1" parent="1">
          <mxGeometry x="590" y="80" width="120" height="40" as="geometry" />
        </mxCell>
        <mxCell id="3oWR45-d2a_-YinDWhUd-19" style="edgeStyle=orthogonalEdgeStyle;rounded=0;orthogonalLoop=1;jettySize=auto;html=1;elbow=vertical;curved=1;entryX=0;entryY=0.5;entryDx=0;entryDy=0;" edge="1" parent="1" source="3oWR45-d2a_-YinDWhUd-13" target="3oWR45-d2a_-YinDWhUd-12">
          <mxGeometry relative="1" as="geometry" />
        </mxCell>
        <mxCell id="3oWR45-d2a_-YinDWhUd-20" style="edgeStyle=orthogonalEdgeStyle;rounded=0;orthogonalLoop=1;jettySize=auto;html=1;elbow=vertical;curved=1;entryX=0;entryY=0.5;entryDx=0;entryDy=0;" edge="1" parent="1" source="3oWR45-d2a_-YinDWhUd-13" target="3oWR45-d2a_-YinDWhUd-14">
          <mxGeometry relative="1" as="geometry" />
        </mxCell>
        <mxCell id="3oWR45-d2a_-YinDWhUd-41" style="edgeStyle=elbowEdgeStyle;rounded=0;orthogonalLoop=1;jettySize=auto;html=1;elbow=vertical;curved=0;entryX=0;entryY=0.5;entryDx=0;entryDy=0;" edge="1" parent="1" source="3oWR45-d2a_-YinDWhUd-13" target="3oWR45-d2a_-YinDWhUd-40">
          <mxGeometry relative="1" as="geometry" />
        </mxCell>
        <mxCell id="3oWR45-d2a_-YinDWhUd-13" value="" style="html=1;points=[];perimeter=orthogonalPerimeter;outlineConnect=0;targetShapes=umlLifeline;portConstraint=eastwest;newEdgeStyle={&quot;edgeStyle&quot;:&quot;elbowEdgeStyle&quot;,&quot;elbow&quot;:&quot;vertical&quot;,&quot;curved&quot;:0,&quot;rounded&quot;:0};" vertex="1" parent="1">
          <mxGeometry x="460" y="140" width="10" height="80" as="geometry" />
        </mxCell>
        <mxCell id="3oWR45-d2a_-YinDWhUd-22" style="edgeStyle=orthogonalEdgeStyle;rounded=0;orthogonalLoop=1;jettySize=auto;html=1;entryX=-0.042;entryY=0.524;entryDx=0;entryDy=0;entryPerimeter=0;" edge="1" parent="1" source="3oWR45-d2a_-YinDWhUd-14" target="3oWR45-d2a_-YinDWhUd-21">
          <mxGeometry relative="1" as="geometry" />
        </mxCell>
        <mxCell id="3oWR45-d2a_-YinDWhUd-14" value="Player win" style="rounded=1;whiteSpace=wrap;html=1;" vertex="1" parent="1">
          <mxGeometry x="590" y="240" width="120" height="40" as="geometry" />
        </mxCell>
        <mxCell id="3oWR45-d2a_-YinDWhUd-21" value="" style="ellipse;html=1;shape=endState;fillColor=#000000;strokeColor=#1a5fb4;" vertex="1" parent="1">
          <mxGeometry x="760" y="245" width="30" height="30" as="geometry" />
        </mxCell>
        <mxCell id="3oWR45-d2a_-YinDWhUd-38" style="edgeStyle=orthogonalEdgeStyle;rounded=0;orthogonalLoop=1;jettySize=auto;html=1;" edge="1" parent="1" source="3oWR45-d2a_-YinDWhUd-24" target="3oWR45-d2a_-YinDWhUd-36">
          <mxGeometry relative="1" as="geometry" />
        </mxCell>
        <mxCell id="3oWR45-d2a_-YinDWhUd-24" value="Attack" style="rounded=1;whiteSpace=wrap;html=1;" vertex="1" parent="1">
          <mxGeometry x="200" y="400" width="120" height="40" as="geometry" />
        </mxCell>
        <mxCell id="3oWR45-d2a_-YinDWhUd-51" value="" style="edgeStyle=orthogonalEdgeStyle;rounded=0;orthogonalLoop=1;jettySize=auto;html=1;" edge="1" parent="1" source="3oWR45-d2a_-YinDWhUd-25" target="3oWR45-d2a_-YinDWhUd-49">
          <mxGeometry relative="1" as="geometry" />
        </mxCell>
        <mxCell id="3oWR45-d2a_-YinDWhUd-25" value="Jump" style="rounded=1;whiteSpace=wrap;html=1;" vertex="1" parent="1">
          <mxGeometry x="200" y="600" width="120" height="40" as="geometry" />
        </mxCell>
        <mxCell id="3oWR45-d2a_-YinDWhUd-64" value="" style="edgeStyle=orthogonalEdgeStyle;rounded=0;orthogonalLoop=1;jettySize=auto;html=1;" edge="1" parent="1" source="3oWR45-d2a_-YinDWhUd-33" target="3oWR45-d2a_-YinDWhUd-63">
          <mxGeometry relative="1" as="geometry" />
        </mxCell>
        <mxCell id="3oWR45-d2a_-YinDWhUd-33" value="Idle" style="rounded=1;whiteSpace=wrap;html=1;" vertex="1" parent="1">
          <mxGeometry x="530" y="360" width="120" height="40" as="geometry" />
        </mxCell>
        <mxCell id="3oWR45-d2a_-YinDWhUd-34" style="edgeStyle=orthogonalEdgeStyle;rounded=0;orthogonalLoop=1;jettySize=auto;html=1;elbow=vertical;curved=1;entryX=0;entryY=0.5;entryDx=0;entryDy=0;" edge="1" parent="1" source="3oWR45-d2a_-YinDWhUd-36" target="3oWR45-d2a_-YinDWhUd-33">
          <mxGeometry relative="1" as="geometry" />
        </mxCell>
        <mxCell id="3oWR45-d2a_-YinDWhUd-35" style="edgeStyle=orthogonalEdgeStyle;rounded=0;orthogonalLoop=1;jettySize=auto;html=1;elbow=vertical;curved=1;entryX=0;entryY=0.5;entryDx=0;entryDy=0;" edge="1" parent="1" source="3oWR45-d2a_-YinDWhUd-36" target="3oWR45-d2a_-YinDWhUd-37">
          <mxGeometry relative="1" as="geometry" />
        </mxCell>
        <mxCell id="3oWR45-d2a_-YinDWhUd-36" value="" style="html=1;points=[];perimeter=orthogonalPerimeter;outlineConnect=0;targetShapes=umlLifeline;portConstraint=eastwest;newEdgeStyle={&quot;edgeStyle&quot;:&quot;elbowEdgeStyle&quot;,&quot;elbow&quot;:&quot;vertical&quot;,&quot;curved&quot;:0,&quot;rounded&quot;:0};" vertex="1" parent="1">
          <mxGeometry x="400" y="380" width="10" height="80" as="geometry" />
        </mxCell>
        <mxCell id="3oWR45-d2a_-YinDWhUd-45" value="" style="edgeStyle=orthogonalEdgeStyle;rounded=0;orthogonalLoop=1;jettySize=auto;html=1;" edge="1" parent="1" source="3oWR45-d2a_-YinDWhUd-37" target="3oWR45-d2a_-YinDWhUd-44">
          <mxGeometry relative="1" as="geometry" />
        </mxCell>
        <mxCell id="3oWR45-d2a_-YinDWhUd-37" value="Player get hurt" style="rounded=1;whiteSpace=wrap;html=1;" vertex="1" parent="1">
          <mxGeometry x="530" y="440" width="120" height="40" as="geometry" />
        </mxCell>
        <mxCell id="3oWR45-d2a_-YinDWhUd-43" style="edgeStyle=orthogonalEdgeStyle;rounded=0;orthogonalLoop=1;jettySize=auto;html=1;" edge="1" parent="1" source="3oWR45-d2a_-YinDWhUd-40" target="3oWR45-d2a_-YinDWhUd-42">
          <mxGeometry relative="1" as="geometry" />
        </mxCell>
        <mxCell id="3oWR45-d2a_-YinDWhUd-40" value="Die" style="rounded=1;whiteSpace=wrap;html=1;" vertex="1" parent="1">
          <mxGeometry x="590" y="160" width="120" height="40" as="geometry" />
        </mxCell>
        <mxCell id="3oWR45-d2a_-YinDWhUd-42" value="" style="ellipse;html=1;shape=endState;fillColor=#000000;strokeColor=#ff0000;" vertex="1" parent="1">
          <mxGeometry x="760" y="165" width="30" height="30" as="geometry" />
        </mxCell>
        <mxCell id="3oWR45-d2a_-YinDWhUd-44" value="" style="ellipse;html=1;shape=endState;fillColor=#000000;strokeColor=#ff0000;" vertex="1" parent="1">
          <mxGeometry x="730" y="445" width="30" height="30" as="geometry" />
        </mxCell>
        <mxCell id="3oWR45-d2a_-YinDWhUd-59" value="" style="edgeStyle=orthogonalEdgeStyle;rounded=0;orthogonalLoop=1;jettySize=auto;html=1;curved=1;" edge="1" parent="1" source="3oWR45-d2a_-YinDWhUd-46" target="3oWR45-d2a_-YinDWhUd-55">
          <mxGeometry relative="1" as="geometry" />
        </mxCell>
        <mxCell id="3oWR45-d2a_-YinDWhUd-46" value="Right" style="rounded=1;whiteSpace=wrap;html=1;" vertex="1" parent="1">
          <mxGeometry x="530" y="560" width="120" height="40" as="geometry" />
        </mxCell>
        <mxCell id="3oWR45-d2a_-YinDWhUd-47" style="edgeStyle=orthogonalEdgeStyle;rounded=0;orthogonalLoop=1;jettySize=auto;html=1;elbow=vertical;curved=1;entryX=0;entryY=0.5;entryDx=0;entryDy=0;" edge="1" parent="1" source="3oWR45-d2a_-YinDWhUd-49" target="3oWR45-d2a_-YinDWhUd-46">
          <mxGeometry relative="1" as="geometry" />
        </mxCell>
        <mxCell id="3oWR45-d2a_-YinDWhUd-48" style="edgeStyle=orthogonalEdgeStyle;rounded=0;orthogonalLoop=1;jettySize=auto;html=1;elbow=vertical;curved=1;entryX=0;entryY=0.5;entryDx=0;entryDy=0;" edge="1" parent="1" source="3oWR45-d2a_-YinDWhUd-49" target="3oWR45-d2a_-YinDWhUd-50">
          <mxGeometry relative="1" as="geometry" />
        </mxCell>
        <mxCell id="3oWR45-d2a_-YinDWhUd-49" value="" style="html=1;points=[];perimeter=orthogonalPerimeter;outlineConnect=0;targetShapes=umlLifeline;portConstraint=eastwest;newEdgeStyle={&quot;edgeStyle&quot;:&quot;elbowEdgeStyle&quot;,&quot;elbow&quot;:&quot;vertical&quot;,&quot;curved&quot;:0,&quot;rounded&quot;:0};" vertex="1" parent="1">
          <mxGeometry x="400" y="580" width="10" height="80" as="geometry" />
        </mxCell>
        <mxCell id="3oWR45-d2a_-YinDWhUd-60" value="" style="edgeStyle=orthogonalEdgeStyle;rounded=0;orthogonalLoop=1;jettySize=auto;html=1;curved=1;" edge="1" parent="1" source="3oWR45-d2a_-YinDWhUd-50" target="3oWR45-d2a_-YinDWhUd-55">
          <mxGeometry relative="1" as="geometry" />
        </mxCell>
        <mxCell id="3oWR45-d2a_-YinDWhUd-50" value="Left" style="rounded=1;whiteSpace=wrap;html=1;" vertex="1" parent="1">
          <mxGeometry x="530" y="640" width="120" height="40" as="geometry" />
        </mxCell>
        <mxCell id="3oWR45-d2a_-YinDWhUd-66" value="" style="edgeStyle=orthogonalEdgeStyle;rounded=0;orthogonalLoop=1;jettySize=auto;html=1;" edge="1" parent="1" source="3oWR45-d2a_-YinDWhUd-52" target="3oWR45-d2a_-YinDWhUd-65">
          <mxGeometry relative="1" as="geometry" />
        </mxCell>
        <mxCell id="3oWR45-d2a_-YinDWhUd-52" value="Idle" style="rounded=1;whiteSpace=wrap;html=1;" vertex="1" parent="1">
          <mxGeometry x="850" y="560" width="120" height="40" as="geometry" />
        </mxCell>
        <mxCell id="3oWR45-d2a_-YinDWhUd-53" style="edgeStyle=orthogonalEdgeStyle;rounded=0;orthogonalLoop=1;jettySize=auto;html=1;elbow=vertical;curved=1;entryX=0;entryY=0.5;entryDx=0;entryDy=0;" edge="1" parent="1" source="3oWR45-d2a_-YinDWhUd-55" target="3oWR45-d2a_-YinDWhUd-52">
          <mxGeometry relative="1" as="geometry" />
        </mxCell>
        <mxCell id="3oWR45-d2a_-YinDWhUd-54" style="edgeStyle=orthogonalEdgeStyle;rounded=0;orthogonalLoop=1;jettySize=auto;html=1;elbow=vertical;curved=1;entryX=0;entryY=0.5;entryDx=0;entryDy=0;" edge="1" parent="1" source="3oWR45-d2a_-YinDWhUd-55" target="3oWR45-d2a_-YinDWhUd-57">
          <mxGeometry relative="1" as="geometry" />
        </mxCell>
        <mxCell id="3oWR45-d2a_-YinDWhUd-55" value="" style="html=1;points=[];perimeter=orthogonalPerimeter;outlineConnect=0;targetShapes=umlLifeline;portConstraint=eastwest;newEdgeStyle={&quot;edgeStyle&quot;:&quot;elbowEdgeStyle&quot;,&quot;elbow&quot;:&quot;vertical&quot;,&quot;curved&quot;:0,&quot;rounded&quot;:0};" vertex="1" parent="1">
          <mxGeometry x="720" y="580" width="10" height="80" as="geometry" />
        </mxCell>
        <mxCell id="3oWR45-d2a_-YinDWhUd-56" value="" style="edgeStyle=orthogonalEdgeStyle;rounded=0;orthogonalLoop=1;jettySize=auto;html=1;" edge="1" parent="1" source="3oWR45-d2a_-YinDWhUd-57" target="3oWR45-d2a_-YinDWhUd-58">
          <mxGeometry relative="1" as="geometry" />
        </mxCell>
        <mxCell id="3oWR45-d2a_-YinDWhUd-57" value="Player get hurt" style="rounded=1;whiteSpace=wrap;html=1;" vertex="1" parent="1">
          <mxGeometry x="850" y="640" width="120" height="40" as="geometry" />
        </mxCell>
        <mxCell id="3oWR45-d2a_-YinDWhUd-58" value="" style="ellipse;html=1;shape=endState;fillColor=#000000;strokeColor=#ff0000;" vertex="1" parent="1">
          <mxGeometry x="1050" y="645" width="30" height="30" as="geometry" />
        </mxCell>
        <mxCell id="3oWR45-d2a_-YinDWhUd-61" value="" style="ellipse;html=1;shape=endState;fillColor=#008a00;strokeColor=#005700;fontColor=#ffffff;" vertex="1" parent="1">
          <mxGeometry x="760" y="85" width="30" height="30" as="geometry" />
        </mxCell>
        <mxCell id="3oWR45-d2a_-YinDWhUd-63" value="" style="ellipse;html=1;shape=endState;fillColor=#008a00;strokeColor=#005700;fontColor=#ffffff;" vertex="1" parent="1">
          <mxGeometry x="730" y="365" width="30" height="30" as="geometry" />
        </mxCell>
        <mxCell id="3oWR45-d2a_-YinDWhUd-65" value="" style="ellipse;html=1;shape=endState;fillColor=#008a00;strokeColor=#005700;fontColor=#ffffff;" vertex="1" parent="1">
          <mxGeometry x="1050" y="565" width="30" height="30" as="geometry" />
        </mxCell>
      </root>
    </mxGraphModel>
  </diagram>
  <diagram id="j9vXGfR09Svr6Wekk10D" name="Sequence">
    <mxGraphModel dx="1662" dy="862" grid="1" gridSize="10" guides="1" tooltips="1" connect="1" arrows="1" fold="1" page="1" pageScale="1" pageWidth="850" pageHeight="1100" math="0" shadow="0">
      <root>
        <mxCell id="0" />
        <mxCell id="1" parent="0" />
        <mxCell id="9NI22LdG9tbQ93jyAEdQ-1" value="" style="shape=umlLifeline;perimeter=lifelinePerimeter;whiteSpace=wrap;html=1;container=1;dropTarget=0;collapsible=0;recursiveResize=0;outlineConnect=0;portConstraint=eastwest;newEdgeStyle={&quot;edgeStyle&quot;:&quot;elbowEdgeStyle&quot;,&quot;elbow&quot;:&quot;vertical&quot;,&quot;curved&quot;:0,&quot;rounded&quot;:0};participant=umlActor;" vertex="1" parent="1">
          <mxGeometry x="90" y="40" width="20" height="480" as="geometry" />
        </mxCell>
        <mxCell id="1tMQu-jooX4I5ypqX6vT-3" value="API" style="shape=umlLifeline;perimeter=lifelinePerimeter;whiteSpace=wrap;html=1;container=1;dropTarget=0;collapsible=0;recursiveResize=0;outlineConnect=0;portConstraint=eastwest;newEdgeStyle={&quot;edgeStyle&quot;:&quot;elbowEdgeStyle&quot;,&quot;elbow&quot;:&quot;vertical&quot;,&quot;curved&quot;:0,&quot;rounded&quot;:0};" vertex="1" parent="1">
          <mxGeometry x="440" y="40" width="80" height="480" as="geometry" />
        </mxCell>
        <mxCell id="1tMQu-jooX4I5ypqX6vT-21" value="" style="html=1;points=[];perimeter=orthogonalPerimeter;outlineConnect=0;targetShapes=umlLifeline;portConstraint=eastwest;newEdgeStyle={&quot;edgeStyle&quot;:&quot;elbowEdgeStyle&quot;,&quot;elbow&quot;:&quot;vertical&quot;,&quot;curved&quot;:0,&quot;rounded&quot;:0};" vertex="1" parent="1tMQu-jooX4I5ypqX6vT-3">
          <mxGeometry x="20" y="160" width="10" height="230" as="geometry" />
        </mxCell>
        <mxCell id="1tMQu-jooX4I5ypqX6vT-16" value="Terminal" style="shape=umlLifeline;perimeter=lifelinePerimeter;whiteSpace=wrap;html=1;container=1;dropTarget=0;collapsible=0;recursiveResize=0;outlineConnect=0;portConstraint=eastwest;newEdgeStyle={&quot;edgeStyle&quot;:&quot;elbowEdgeStyle&quot;,&quot;elbow&quot;:&quot;vertical&quot;,&quot;curved&quot;:0,&quot;rounded&quot;:0};" vertex="1" parent="1">
          <mxGeometry x="240" y="40" width="80" height="480" as="geometry" />
        </mxCell>
        <mxCell id="1tMQu-jooX4I5ypqX6vT-18" value="" style="html=1;points=[];perimeter=orthogonalPerimeter;outlineConnect=0;targetShapes=umlLifeline;portConstraint=eastwest;newEdgeStyle={&quot;edgeStyle&quot;:&quot;elbowEdgeStyle&quot;,&quot;elbow&quot;:&quot;vertical&quot;,&quot;curved&quot;:0,&quot;rounded&quot;:0};" vertex="1" parent="1tMQu-jooX4I5ypqX6vT-16">
          <mxGeometry x="20" y="90" width="10" height="380" as="geometry" />
        </mxCell>
        <mxCell id="1tMQu-jooX4I5ypqX6vT-17" value="File" style="shape=umlLifeline;perimeter=lifelinePerimeter;whiteSpace=wrap;html=1;container=1;dropTarget=0;collapsible=0;recursiveResize=0;outlineConnect=0;portConstraint=eastwest;newEdgeStyle={&quot;edgeStyle&quot;:&quot;elbowEdgeStyle&quot;,&quot;elbow&quot;:&quot;vertical&quot;,&quot;curved&quot;:0,&quot;rounded&quot;:0};" vertex="1" parent="1">
          <mxGeometry x="640" y="40" width="80" height="480" as="geometry" />
        </mxCell>
        <mxCell id="1tMQu-jooX4I5ypqX6vT-25" value="" style="html=1;points=[];perimeter=orthogonalPerimeter;outlineConnect=0;targetShapes=umlLifeline;portConstraint=eastwest;newEdgeStyle={&quot;edgeStyle&quot;:&quot;elbowEdgeStyle&quot;,&quot;elbow&quot;:&quot;vertical&quot;,&quot;curved&quot;:0,&quot;rounded&quot;:0};" vertex="1" parent="1tMQu-jooX4I5ypqX6vT-17">
          <mxGeometry x="20" y="240" width="10" height="110" as="geometry" />
        </mxCell>
        <mxCell id="1tMQu-jooX4I5ypqX6vT-19" value="Send a query" style="html=1;verticalAlign=bottom;endArrow=block;edgeStyle=elbowEdgeStyle;elbow=vertical;curved=0;rounded=0;" edge="1" target="1tMQu-jooX4I5ypqX6vT-18" parent="1" source="9NI22LdG9tbQ93jyAEdQ-1">
          <mxGeometry relative="1" as="geometry">
            <mxPoint x="190" y="130" as="sourcePoint" />
            <Array as="points">
              <mxPoint x="210" y="130" />
            </Array>
          </mxGeometry>
        </mxCell>
        <mxCell id="1tMQu-jooX4I5ypqX6vT-20" value="API Answer" style="html=1;verticalAlign=bottom;endArrow=open;dashed=1;endSize=8;edgeStyle=elbowEdgeStyle;elbow=vertical;curved=0;rounded=0;" edge="1" parent="1">
          <mxGeometry x="-0.1452" y="-5" relative="1" as="geometry">
            <mxPoint x="100.07446808510639" y="499.9976595744681" as="targetPoint" />
            <mxPoint x="260" y="499.9976595744681" as="sourcePoint" />
            <mxPoint as="offset" />
          </mxGeometry>
        </mxCell>
        <mxCell id="1tMQu-jooX4I5ypqX6vT-22" value="Dispatch interaction" style="html=1;verticalAlign=bottom;endArrow=block;edgeStyle=elbowEdgeStyle;elbow=vertical;curved=0;rounded=0;" edge="1" parent="1">
          <mxGeometry relative="1" as="geometry">
            <mxPoint x="280" y="200" as="sourcePoint" />
            <mxPoint x="460" y="200" as="targetPoint" />
          </mxGeometry>
        </mxCell>
        <mxCell id="1tMQu-jooX4I5ypqX6vT-23" value="Status code" style="html=1;verticalAlign=bottom;endArrow=open;dashed=1;endSize=8;edgeStyle=elbowEdgeStyle;elbow=vertical;curved=0;rounded=0;" edge="1" parent="1">
          <mxGeometry relative="1" as="geometry">
            <mxPoint x="280" y="430" as="targetPoint" />
            <mxPoint x="460" y="430" as="sourcePoint" />
          </mxGeometry>
        </mxCell>
        <mxCell id="1tMQu-jooX4I5ypqX6vT-27" value="Std err / Std output" style="html=1;verticalAlign=bottom;endArrow=open;dashed=1;endSize=8;edgeStyle=elbowEdgeStyle;elbow=vertical;curved=0;rounded=0;" edge="1" source="1tMQu-jooX4I5ypqX6vT-25" parent="1" target="1tMQu-jooX4I5ypqX6vT-3">
          <mxGeometry relative="1" as="geometry">
            <mxPoint x="590" y="355" as="targetPoint" />
            <Array as="points">
              <mxPoint x="620" y="390" />
            </Array>
          </mxGeometry>
        </mxCell>
        <mxCell id="1tMQu-jooX4I5ypqX6vT-26" value="Update file" style="html=1;verticalAlign=bottom;endArrow=block;edgeStyle=elbowEdgeStyle;elbow=vertical;curved=0;rounded=0;" edge="1" parent="1">
          <mxGeometry relative="1" as="geometry">
            <mxPoint x="479.98717948717945" y="279.73871794871803" as="sourcePoint" />
            <mxPoint x="659.9999999999998" y="279.73871794871803" as="targetPoint" />
          </mxGeometry>
        </mxCell>
      </root>
    </mxGraphModel>
  </diagram>
</mxfile>
